<?xml version="1.0" encoding="utf-8"?>
<!-- Generator: Adobe Illustrator 19.0.0, SVG Export Plug-In . SVG Version: 6.00 Build 0)  -->
<svg version="1.1" id="Isolation_Mode" xmlns="http://www.w3.org/2000/svg" xmlns:xlink="http://www.w3.org/1999/xlink" x="0px"
	 y="0px" viewBox="0 0 49 56.6" style="enable-background:new 0 0 49 56.6;" xml:space="preserve">
<style type="text/css">
	.st0{fill:#27AAE1;}
</style>
<g id="XMLID_29_">
	<polygon id="XMLID_30_" class="st0" points="39.7,8.9 36.9,10.8 44.2,15.1 24.5,26.4 24.4,26.4 4.8,15.1 12.1,10.8 9.3,8.9 0,14.2 
		0,24.5 3.1,26.4 3.2,17.6 22.8,29.1 22.8,51.8 15.5,47.5 15.5,51.4 24.6,56.6 33.6,51.3 33.6,47.5 26.3,51.8 26.3,29.1 26.4,29 
		45.8,17.6 45.9,26.4 49,24.5 49,14.2 	"/>
	<polygon id="XMLID_34_" class="st0" points="11.4,37.7 9.8,34.8 3.1,38.5 3.1,30.1 0.1,31.8 0.1,42.4 9.1,47.7 12.3,45.7 4.8,41.4 
			"/>
	<polygon id="XMLID_35_" class="st0" points="46,38.5 39.4,34.8 37.7,37.7 44.4,41.4 36.8,45.7 40.1,47.7 49,42.4 49,31.8 46,30.1 	
		"/>
	<polygon id="XMLID_36_" class="st0" points="22.9,12.1 26.2,12.1 26.2,4.5 33.5,8.8 33.5,5.3 24.6,0 15.6,5.3 15.6,8.8 22.9,4.5 	
		"/>
</g>
</svg>
